<?xml version="1.0" standalone="no"?>
<!DOCTYPE svg PUBLIC "-//W3C//DTD SVG 20010904//EN"
 "http://www.w3.org/TR/2001/REC-SVG-20010904/DTD/svg10.dtd">
<svg version="1.0" xmlns="http://www.w3.org/2000/svg"
 width="400.000000pt" height="400.000000pt" viewBox="0 0 400.000000 400.000000"
 preserveAspectRatio="xMidYMid meet">
<metadata>
Created by potrace 1.14, written by Peter Selinger 2001-2017
</metadata>
<g transform="translate(0.000000,400.000000) scale(0.100000,-0.100000)"
fill="#000000" stroke="none">
<path d="M1778 3989 c-136 -20 -126 -28 35 -26 143 1 157 3 157 19 0 16 -9 18
-67 17 -38 -1 -94 -5 -125 -10z"/>
<path d="M2000 3990 c0 -5 13 -16 30 -25 38 -19 54 -19 18 1 -16 8 -28 19 -28
24 0 6 -4 10 -10 10 -5 0 -10 -4 -10 -10z"/>
<path d="M2220 3987 c0 -2 32 -17 71 -32 53 -22 66 -31 53 -36 -14 -4 -7 -8
23 -13 l43 -8 -6 -56 c-3 -32 -7 -62 -9 -68 -4 -15 30 -179 49 -230 8 -23 22
-57 32 -75 9 -19 17 -47 16 -63 -1 -43 24 -130 57 -202 16 -34 32 -80 36 -102
3 -22 22 -64 40 -93 18 -30 32 -56 30 -58 -17 -16 -265 138 -319 198 -11 11
-28 21 -39 21 -15 0 -17 4 -11 18 5 9 7 47 6 83 -2 37 2 95 7 130 11 63 6 85
-15 71 -17 -11 -41 -63 -49 -105 -4 -20 -11 -40 -16 -43 -12 -7 -62 106 -83
187 -26 105 -19 164 20 180 26 9 33 39 10 39 -46 0 -76 -44 -76 -112 0 -62 33
-170 85 -274 31 -62 49 -117 59 -172 22 -128 84 -225 207 -324 52 -43 199
-115 244 -120 24 -2 31 -8 33 -29 5 -40 -20 -53 -98 -51 -144 2 -261 54 -370
162 -75 74 -139 177 -125 199 11 18 -5 33 -21 20 -33 -27 21 -131 121 -232
127 -127 300 -199 441 -183 29 3 66 1 83 -5 l33 -12 -38 -38 c-58 -59 -157
-102 -225 -97 l-44 3 2 53 c3 68 -22 73 -32 6 -10 -70 10 -94 79 -94 47 0 151
32 166 50 10 13 110 80 110 74 0 -3 -9 -19 -21 -35 -11 -16 -24 -50 -29 -76
-5 -27 -20 -88 -34 -138 -47 -167 -49 -291 -5 -422 11 -35 28 -67 35 -70 10
-3 12 -13 8 -27 -6 -21 -6 -21 10 -1 19 25 21 55 2 55 -21 0 -59 144 -59 225
1 76 16 185 37 256 12 39 14 41 20 21 4 -13 25 -34 46 -48 l38 -25 -15 -57
c-10 -37 -13 -76 -9 -110 8 -70 63 -180 126 -250 27 -31 50 -61 50 -68 0 -7 3
-21 6 -31 6 -16 5 -16 -9 2 -11 13 -16 15 -17 7 0 -8 9 -25 20 -39 11 -15 27
-51 36 -82 9 -31 21 -69 27 -86 25 -62 107 -218 141 -265 20 -28 36 -55 36
-61 0 -5 23 -35 51 -64 l51 -55 -22 -57 c-38 -94 -66 -147 -91 -168 -13 -11
-18 -13 -11 -5 22 26 12 32 -18 10 -16 -11 -51 -30 -77 -42 l-48 -22 30 -6
c26 -5 22 -7 -33 -18 -34 -7 -66 -10 -71 -7 -5 3 -12 1 -15 -4 -4 -5 16 -17
42 -25 48 -16 142 -70 142 -81 0 -3 -8 -1 -18 4 -66 35 -219 71 -303 71 -26 0
-50 4 -53 9 -10 15 53 31 100 24 27 -3 44 -2 44 5 0 13 -24 22 -63 23 -28 1
-27 2 12 10 80 16 180 51 197 70 9 11 22 19 28 19 7 0 36 25 66 55 30 30 49
55 43 55 -6 0 -13 -4 -15 -8 -1 -5 -29 -27 -61 -51 -47 -34 -58 -39 -63 -26
-4 9 2 25 12 37 19 22 18 22 -16 -1 -54 -35 -158 -83 -171 -79 -6 2 24 25 68
50 43 25 85 54 93 64 14 18 14 18 -10 2 -128 -88 -233 -138 -289 -138 -22 0
-4 22 127 153 83 84 152 156 152 160 0 5 -4 6 -8 3 -5 -3 -21 2 -37 10 -25 13
-31 13 -40 1 -6 -9 -16 -11 -25 -6 -8 4 -23 10 -32 13 -15 4 -18 17 -18 65 l0
59 -35 -3 c-33 -3 -35 -1 -35 26 0 16 -4 29 -10 29 -20 0 -9 27 19 47 28 21
48 63 30 63 -5 0 -9 9 -9 19 0 32 -17 34 -28 4 -6 -16 -11 -22 -11 -15 -1 7
-6 10 -11 7 -15 -9 -9 55 6 79 11 17 14 15 35 -25 33 -65 35 -30 2 37 -18 37
-29 51 -31 40 -4 -16 -5 -16 -17 1 -12 16 -14 11 -21 -45 -4 -35 -13 -69 -20
-77 -8 -7 -14 -26 -14 -42 0 -47 26 -166 43 -200 32 -61 16 -74 -21 -17 -42
64 -61 144 -58 236 2 46 6 92 10 103 3 11 0 7 -8 -10 -8 -16 -15 -36 -16 -42
0 -23 -30 -14 -31 10 l0 22 -9 -21 c-5 -12 -14 -25 -20 -29 -8 -5 -8 -10 0
-20 32 -38 -6 -358 -56 -472 -23 -52 -25 -80 -8 -87 23 -9 17 -29 -7 -23 -21
6 -51 -13 -49 -30 4 -28 -29 -100 -61 -137 -22 -24 -39 -49 -39 -54 0 -14 -18
-25 -29 -18 -5 4 -5 21 2 41 9 29 8 37 -6 48 -16 12 -17 24 -4 60 15 39 15 46
0 51 -8 3 -19 3 -25 0 -6 -4 -5 2 1 15 11 21 30 24 42 7 14 -18 47 6 64 47 9
23 21 51 26 62 13 31 36 107 42 140 3 17 9 39 13 50 17 45 -23 -11 -52 -72
-16 -35 -33 -63 -39 -63 -5 0 -3 -5 5 -10 13 -8 13 -10 -1 -10 -9 0 -22 -7
-29 -15 -7 -9 -15 -14 -17 -11 -5 5 22 91 45 145 23 54 31 88 57 236 29 160
28 155 15 155 -5 0 -10 -9 -10 -21 0 -11 -25 -47 -57 -80 -140 -147 -522 -334
-753 -368 l-55 -9 64 -1 c93 -2 327 79 413 142 15 11 31 18 34 14 4 -3 -8 -57
-27 -119 -18 -62 -38 -151 -44 -198 l-10 -84 -70 -18 c-81 -21 -357 -115 -395
-135 -14 -7 -36 -13 -50 -13 -14 0 -59 -10 -100 -21 -41 -12 -97 -27 -125 -34
-27 -7 -90 -27 -139 -44 -49 -17 -92 -29 -95 -25 -6 5 28 144 61 251 l19 62
67 19 c40 11 96 18 139 18 69 -1 73 0 82 24 22 55 31 108 31 178 0 73 7 85 30
56 8 -8 23 -20 34 -26 12 -6 -66 74 -171 179 -112 110 -193 197 -193 208 0 10
-2 16 -5 13 -3 -2 0 -51 5 -109 6 -61 6 -164 1 -249 -7 -141 -9 -147 -48 -232
-24 -50 -50 -91 -63 -98 -20 -11 -21 -10 -10 10 37 68 60 293 39 375 -4 17
-10 60 -14 97 -4 38 -11 68 -17 68 -6 0 -8 -10 -5 -22 10 -41 17 -146 8 -113
-5 17 -9 25 -10 18 -2 -18 -31 -4 -31 16 0 9 -8 30 -19 46 -10 17 -24 48 -31
69 -7 22 -27 71 -45 110 -39 87 -73 212 -54 200 12 -7 11 8 -2 43 -11 31 -3
97 11 88 5 -3 12 -22 15 -43 4 -20 15 -62 25 -92 10 -30 35 -109 55 -175 35
-112 55 -158 55 -125 0 11 -66 231 -115 380 -8 25 -15 85 -16 133 -1 48 -5 87
-9 87 -17 0 -123 -494 -119 -555 1 -11 -2 -39 -6 -62 -6 -36 -5 -43 8 -43 9 0
27 -15 41 -32 14 -18 26 -28 27 -23 8 67 9 65 -12 55 -16 -9 -19 -7 -19 12 0
19 2 20 10 8 9 -13 10 -13 10 1 0 8 -5 20 -12 27 -9 9 -9 12 2 12 8 -1 25 -16
36 -34 18 -27 20 -42 14 -81 l-7 -47 65 -42 c36 -22 84 -48 106 -56 37 -14 41
-19 44 -53 3 -37 2 -38 -25 -31 -81 18 -286 140 -282 167 4 30 -2 38 -25 35
-19 -2 -36 11 -81 61 -32 36 -64 81 -72 100 -8 20 -21 50 -29 66 -7 17 -17 48
-22 70 l-9 40 -7 -36 c-5 -21 -4 -45 2 -55 5 -11 13 -40 16 -67 4 -26 11 -47
17 -47 5 0 9 -5 9 -11 0 -23 75 -185 94 -202 15 -13 17 -20 9 -23 -17 -7 -28
-6 -28 4 0 4 -26 31 -58 61 -32 30 -56 59 -54 65 2 6 -36 88 -85 183 -96 187
-103 217 -76 318 11 41 15 45 48 51 19 3 47 12 62 20 38 20 48 18 49 -13 1
-17 3 -21 6 -10 2 9 9 17 14 17 5 0 9 6 9 14 0 17 40 29 41 13 3 -32 -5 -54
-29 -80 l-27 -28 -6 23 c-7 22 -7 22 -8 -3 -1 -25 -56 -85 -107 -116 -16 -10
-14 -11 12 -3 17 4 41 13 52 19 30 16 32 14 32 -21 0 -18 5 -40 10 -48 7 -11
10 0 10 38 0 46 3 54 25 64 22 10 29 9 48 -12 18 -18 19 -22 5 -17 -15 5 -18
0 -18 -39 0 -62 18 -183 32 -214 6 -14 12 -28 12 -32 1 -3 4 -9 7 -12 3 -3 7
18 8 46 2 52 18 78 33 55 12 -19 9 -5 -10 51 -10 29 -21 50 -23 47 -3 -2 -5
22 -6 55 l-2 59 52 3 51 3 13 84 c16 102 11 132 -7 43 -13 -65 -26 -84 -41
-61 -15 25 -10 57 16 87 45 53 26 48 -33 -9 -53 -52 -142 -119 -157 -119 -4 0
25 32 64 71 39 39 71 74 71 79 0 4 9 17 20 30 11 13 20 32 20 44 -1 19 -2 19
-17 -6 -9 -14 -28 -28 -42 -31 -14 -2 -35 -8 -46 -12 -11 -4 4 11 34 34 30 22
58 41 62 41 12 0 99 93 93 99 -3 3 -14 -4 -24 -16 -28 -35 -109 -94 -180 -131
-88 -46 -86 -44 -64 -54 15 -7 14 -8 -6 -4 -14 3 -65 -9 -121 -29 -53 -19
-114 -35 -136 -35 l-39 0 -18 -92 c-10 -51 -20 -151 -23 -223 -5 -115 -3 -137
17 -195 19 -57 91 -170 109 -170 3 0 40 -28 81 -62 41 -33 97 -71 123 -84 35
-16 44 -23 30 -26 -10 -2 -43 11 -73 29 -30 18 -61 33 -67 33 -21 0 -133 112
-161 160 -14 25 -36 59 -48 75 -12 17 -28 55 -35 85 -19 76 -16 276 5 369 13
60 14 76 4 82 -13 9 -45 13 -151 24 l-58 5 6 -47 c35 -271 87 -455 190 -668
83 -170 195 -338 220 -329 17 7 31 -16 15 -26 -9 -5 -9 -9 -1 -14 6 -4 11 -2
11 3 0 6 9 11 20 11 23 0 27 -25 5 -37 -35 -20 240 -279 427 -403 157 -104
354 -199 487 -235 212 -58 239 -64 431 -91 25 -4 106 -7 180 -7 360 -3 747
108 1063 304 140 87 292 212 281 231 -3 4 1 6 8 3 25 -10 221 208 310 344 66
101 71 115 54 154 -17 36 -68 211 -71 242 -1 11 -9 37 -19 57 -9 21 -16 47
-16 58 0 12 -5 30 -11 41 -5 11 -9 28 -7 37 2 11 15 -3 38 -41 64 -108 102
-162 143 -204 43 -45 57 -52 57 -29 0 8 4 16 9 18 8 3 71 166 71 184 0 5 -23
24 -50 43 -27 18 -47 37 -44 42 3 5 -1 7 -8 4 -20 -8 -152 97 -211 167 -59 69
-70 91 -56 105 5 5 6 24 3 42 l-7 33 -13 -23 c-14 -26 -13 -27 -33 47 -15 56
-15 69 2 55 8 -6 17 -8 20 -4 4 3 7 1 7 -6 0 -7 4 -9 10 -6 5 3 18 -7 27 -23
68 -110 334 -402 367 -402 27 0 86 360 86 524 0 104 -38 381 -69 502 -177 689
-729 1247 -1416 1429 -123 33 -295 63 -295 52z m318 -109 l43 -10 -5 -77 c-4
-59 -12 -89 -33 -127 -15 -27 -33 -74 -39 -104 l-11 -55 -27 82 c-31 94 -45
240 -27 287 9 23 15 27 34 21 12 -3 41 -11 65 -17z m116 -41 c17 -13 16 -15
-13 -47 l-31 -34 0 47 c0 50 11 58 44 34z m77 -173 c-6 -60 -10 -117 -8 -128
1 -10 -10 -27 -26 -40 -28 -21 -29 -21 -44 -1 -18 25 -12 83 16 145 11 25 21
53 21 63 0 20 39 81 46 74 3 -3 0 -53 -5 -113z m157 39 c82 -66 87 -76 53 -96
-16 -9 -54 -44 -85 -78 -46 -49 -56 -56 -50 -35 5 21 3 26 -11 26 -16 0 -17 8
-11 78 8 91 23 152 37 152 5 0 35 -21 67 -47z m196 -182 c17 -19 17 -21 -11
-57 l-28 -38 -3 34 c-4 38 5 80 17 80 4 0 16 -9 25 -19z m-209 -46 c-27 -52
-32 -113 -12 -134 10 -11 10 -13 0 -7 -8 4 -13 1 -13 -8 0 -22 -13 -20 -35 4
-33 37 -20 76 54 166 14 17 27 30 28 29 1 0 -9 -23 -22 -50z m-240 -4 c3 -5 1
-12 -5 -16 -5 -3 -10 1 -10 9 0 18 6 21 15 7z m377 -97 c12 -18 -28 -89 -61
-107 l-31 -18 0 28 c0 43 17 92 47 137 l27 41 6 -35 c3 -20 9 -40 12 -46z
m-262 -9 c0 -25 -14 -34 -24 -16 -8 12 3 41 15 41 5 0 9 -11 9 -25z m-30 -73
c0 -30 -21 -102 -29 -102 -4 0 -14 12 -23 28 -15 26 -15 30 4 75 17 38 23 45
34 36 8 -6 14 -23 14 -37z m79 -37 c0 -5 -9 1 -19 14 -11 13 -20 28 -20 35 0
6 9 0 20 -14 11 -14 20 -29 19 -35z m4 -112 c-30 -38 -34 -40 -58 -13 -14 15
-16 28 -10 67 4 26 9 52 12 56 2 4 22 -11 43 -35 l37 -43 -24 -32z m-128 20
c15 -23 25 -51 25 -73 l-1 -35 -29 33 c-23 24 -30 42 -30 72 0 22 2 40 5 40 2
0 16 -17 30 -37z m210 -21 c6 -4 10 -35 10 -69 0 -55 -2 -60 -16 -47 -8 8 -20
14 -26 14 -5 0 -20 11 -32 24 l-23 25 23 30 c24 30 45 37 64 23z m-485 -77
c67 -55 207 -131 260 -142 16 -3 48 -22 71 -43 41 -37 41 -37 28 -73 -17 -47
-30 -47 -127 -1 -128 59 -228 149 -278 247 -19 37 -31 67 -28 67 4 0 37 -25
74 -55z m349 -6 c-9 -18 -13 -20 -20 -7 -4 8 -6 24 -2 36 4 19 7 19 20 7 11
-12 12 -19 2 -36z m-30 -77 c17 -32 6 -40 -20 -16 -21 18 -49 72 -49 94 0 13
52 -46 69 -78z m120 38 c24 -17 48 -30 53 -30 18 0 6 -20 -16 -26 -22 -5 -71
13 -102 38 -14 11 -6 48 10 48 6 0 31 -14 55 -30z m121 -210 c0 -13 -50 -13
-70 0 -11 7 -4 10 28 10 23 0 42 -4 42 -10z m-22 -35 c2 -2 -17 -5 -42 -7 -32
-2 -46 1 -46 10 0 9 11 10 43 6 23 -4 43 -8 45 -9z m-82 -60 c-26 -19 -47 -19
-40 0 4 8 18 15 33 15 25 -1 25 -1 7 -15z m24 -25 c0 -5 -5 -10 -11 -10 -5 0
-7 5 -4 10 3 6 8 10 11 10 2 0 4 -4 4 -10z m260 -41 c0 -28 -15 -30 -39 -5
-17 18 -19 25 -9 28 23 8 48 -4 48 -23z m-21 -56 c2 -1 -4 -23 -13 -48 -10
-25 -21 -43 -26 -40 -11 7 -19 66 -13 98 5 27 6 27 27 10 11 -10 23 -19 25
-20z m-249 -123 c-15 -39 -20 -71 -16 -90 5 -28 4 -30 -14 -20 -28 15 -33 27
-26 64 7 35 63 122 73 112 3 -3 -4 -33 -17 -66z m142 -42 c-10 -22 -11 -21
-11 12 -1 26 2 31 11 22 8 -8 8 -17 0 -34z m60 7 c-11 -21 -25 -4 -16 20 4 10
10 13 16 7 7 -7 7 -16 0 -27z m-85 -22 c-3 -5 -7 -63 -9 -130 -1 -68 -4 -123
-5 -123 -2 0 -10 16 -18 36 -18 43 -19 76 -4 91 8 8 7 17 -3 32 -10 17 -10 25
0 39 6 9 16 27 22 40 5 12 12 22 15 22 4 0 4 -3 2 -7z m-46 -26 c-10 -9 -11
-8 -5 6 3 10 9 15 12 12 3 -3 0 -11 -7 -18z m114 -64 c7 -121 49 -189 172
-280 40 -29 73 -56 73 -59 0 -3 -16 7 -35 22 -41 31 -43 26 -21 -71 7 -33 16
-80 20 -105 l6 -45 -56 60 c-31 33 -62 72 -70 88 -14 26 -14 27 13 27 35 0 62
16 48 28 -6 5 -31 17 -57 27 -58 21 -60 24 -86 100 -42 126 -45 141 -37 220 8
94 24 88 30 -12z m95 -19 c0 -9 9 -32 21 -50 11 -19 19 -44 17 -56 -3 -19 -7
-16 -25 22 -29 59 -38 100 -24 100 6 0 11 -7 11 -16z m355 -42 c-3 -3 -11 0
-18 7 -9 10 -8 11 6 5 10 -3 15 -9 12 -12z m-563 -134 c20 -40 33 -81 35 -113
1 -27 5 -72 8 -99 4 -48 4 -48 -15 -31 -35 32 -63 123 -66 218 -2 48 -1 87 1
87 3 0 19 -28 37 -62z m98 -45 c0 -3 -7 0 -15 7 -8 7 -15 24 -15 39 1 25 1 25
15 -8 8 -18 15 -36 15 -38z m10 -83 c16 -11 53 -55 83 -98 30 -42 75 -96 101
-120 25 -23 46 -45 46 -49 0 -3 -24 -3 -54 0 -39 4 -75 17 -125 46 l-70 41 -5
53 c-11 110 -13 147 -9 147 3 0 18 -9 33 -20z m-2365 -90 c-3 -5 -11 -10 -16
-10 -6 0 -7 5 -4 10 3 6 11 10 16 10 6 0 7 -4 4 -10z m2556 -221 l55 -13 20
-90 c11 -50 17 -93 12 -94 -4 -2 -5 -8 -2 -14 14 -22 -99 45 -170 102 -76 61
-89 78 -105 150 l-8 37 71 -32 c39 -18 96 -39 127 -46z m-2369 -47 c4 -35 2
-50 -5 -43 -5 5 -12 34 -15 63 -3 35 -1 50 6 43 5 -5 12 -34 14 -63z m2357
-132 c33 -19 72 -42 89 -52 25 -13 32 -26 42 -75 12 -57 9 -208 -5 -221 -6 -6
-16 4 -65 64 -79 97 -200 331 -200 386 0 5 18 -8 41 -29 22 -21 66 -54 98 -73z
m-372 -209 c13 -21 8 -32 -13 -24 -14 5 -20 43 -6 43 4 0 13 -9 19 -19z
m-2257 -90 c-1 -10 -50 53 -50 63 0 6 11 -5 25 -24 14 -19 25 -36 25 -39z
m2246 24 c-3 -9 -10 -13 -16 -10 -6 4 -5 11 3 20 15 16 22 11 13 -10z m-1756
-45 c0 -5 -2 -10 -4 -10 -3 0 -8 5 -11 10 -3 6 -1 10 4 10 6 0 11 -4 11 -10z
m-682 -18 c2 -7 -3 -12 -12 -12 -9 0 -16 7 -16 16 0 17 22 14 28 -4z m2612 8
c-18 -12 -30 -13 -30 -2 0 4 10 9 22 9 18 2 20 0 8 -7z m-80 -39 c0 -4 -7 -16
-15 -27 -15 -19 -15 -19 -35 5 -28 32 -25 38 15 33 19 -2 35 -7 35 -11z
m-2013 -125 c58 -29 70 -43 54 -59 -8 -8 -11 -7 -11 5 0 10 -17 23 -45 33 -24
10 -42 21 -39 26 3 5 1 9 -4 9 -15 0 -132 79 -132 89 0 6 28 -9 63 -33 34 -24
85 -55 114 -70z m1953 93 l29 -22 -27 -36 c-30 -39 -115 -121 -121 -116 -1 2
4 18 13 36 9 18 16 39 16 47 0 14 50 112 57 112 2 0 17 -10 33 -21z m-110 -36
c-1 -11 -26 -43 -34 -43 -10 0 -7 25 6 38 13 13 28 16 28 5z m-108 -135 c-2
-46 -8 -87 -13 -92 -5 -6 -9 -19 -10 -30 0 -17 -3 -15 -11 7 -7 21 -6 40 6 77
9 27 16 58 16 69 0 17 9 51 14 51 0 0 0 -37 -2 -82z m-1572 16 c0 -12 -6 -15
-22 -10 -13 3 -29 6 -36 6 -7 0 -10 5 -7 10 11 17 65 12 65 -6z m2444 -111
c-24 -104 -84 -176 -188 -229 -61 -30 -80 -35 -155 -37 -93 -2 -110 1 -186 31
-73 29 -138 68 -182 108 l-38 35 40 -18 c22 -10 56 -30 76 -45 20 -16 39 -28
44 -28 4 0 40 -16 80 -36 68 -33 77 -35 146 -31 171 11 257 59 260 146 1 36 1
36 8 6 l7 -30 32 55 c17 30 32 60 32 66 0 9 20 34 27 34 2 0 1 -12 -3 -27z
m-1184 -8 c0 -8 -4 -15 -10 -15 -5 0 -10 7 -10 15 0 8 5 15 10 15 6 0 10 -7
10 -15z m256 -16 l16 -32 71 6 c44 3 59 2 40 -3 -18 -4 -39 -12 -45 -17 -28
-22 -58 -22 -70 0 -6 12 -17 26 -24 30 -13 7 -20 47 -9 47 2 0 12 -14 21 -31z
m609 21 c-28 -12 -47 -12 -40 0 3 6 18 10 33 9 24 0 25 -1 7 -9z m-2282 -25
c1 -5 -6 -11 -15 -13 -11 -2 -18 3 -18 13 0 17 30 18 33 0z m1358 -8 c-10 -9
-11 -8 -5 6 3 10 9 15 12 12 3 -3 0 -11 -7 -18z m-1241 -21 c0 -22 -122 -146
-149 -151 -13 -2 -21 -1 -17 2 3 4 -1 17 -9 30 -15 22 -15 23 15 23 23 0 44
13 87 55 61 57 73 64 73 41z m1721 -23 c13 -16 12 -17 -3 -4 -17 13 -22 21
-14 21 2 0 10 -8 17 -17z m-616 -132 c-3 -5 4 -12 15 -16 11 -3 20 -10 20 -14
0 -4 11 -13 25 -19 14 -6 25 -20 25 -29 0 -15 2 -16 10 -3 8 12 9 9 6 -11 -2
-14 -21 -43 -42 -65 -20 -21 -32 -32 -25 -22 9 13 9 18 0 24 -7 4 -9 3 -5 -4
9 -15 -75 -94 -96 -89 -10 3 -18 -3 -21 -14 -3 -10 -13 -22 -24 -26 -10 -3
-20 -9 -23 -12 -8 -9 -61 -39 -100 -56 -19 -9 -47 -22 -62 -30 -35 -20 -36
-19 -34 10 0 14 5 25 10 25 4 0 17 11 28 25 11 14 26 25 34 25 8 0 14 2 14 4
0 2 3 13 7 23 7 17 6 17 -20 0 -37 -24 -47 -21 -47 13 0 20 9 37 27 53 14 12
48 41 75 65 27 23 66 53 86 66 20 13 54 38 76 55 40 32 52 38 41 22z m624 -77
c22 -28 20 -44 -5 -44 -8 0 -22 -5 -32 -11 -14 -9 -26 -7 -53 6 l-34 18 33 9
c18 5 38 17 45 28 16 26 21 25 46 -6z m-825 7 c3 -5 -1 -14 -9 -21 -13 -10
-15 -9 -15 9 0 21 14 28 24 12z m350 -68 c-9 -21 -19 -47 -21 -58 -20 -74
-211 -237 -258 -218 -14 5 -16 3 -10 -8 8 -12 6 -12 -8 0 -23 18 -9 34 43 50
23 7 44 19 47 27 3 7 9 12 13 9 11 -7 110 93 121 122 5 14 18 27 29 30 11 3
20 10 19 17 -3 18 20 66 31 66 6 0 4 -15 -6 -37z m529 -103 c3 -11 3 -20 1
-20 -2 0 -8 9 -14 20 -6 11 -7 20 -2 20 6 0 12 -9 15 -20z m-952 -183 c-6 -8
-7 -18 -3 -22 4 -5 -1 -5 -11 -2 -10 4 -24 7 -30 7 -17 0 4 17 28 23 11 3 22
5 24 6 2 0 -2 -5 -8 -12z"/>
<path d="M2830 3650 c13 -24 35 -27 26 -4 -3 9 -6 18 -6 20 0 2 -7 4 -15 4
-13 0 -14 -4 -5 -20z"/>
<path d="M3150 1680 c0 -5 5 -10 11 -10 5 0 7 5 4 10 -3 6 -8 10 -11 10 -2 0
-4 -4 -4 -10z"/>
<path d="M3170 1657 c0 -4 4 -13 10 -20 5 -7 30 -38 55 -69 25 -32 56 -63 68
-69 12 -7 0 12 -28 42 -27 30 -62 70 -77 89 -15 19 -27 31 -28 27z"/>
<path d="M2171 571 c-9 -6 -10 -11 -2 -15 13 -8 31 1 31 15 0 11 -11 11 -29 0z"/>
<path d="M1440 3925 c-348 -102 -618 -264 -872 -522 -200 -203 -330 -404 -434
-669 -55 -142 -107 -338 -100 -381 2 -18 1 -33 -5 -33 -5 0 -9 -7 -9 -15 0 -8
4 -15 8 -15 6 0 103 39 188 76 7 3 11 40 10 97 0 73 5 104 23 150 13 32 25 56
27 54 3 -2 -1 -17 -7 -33 -13 -31 -18 -228 -7 -239 10 -10 108 5 108 16 0 5
-12 7 -28 4 -24 -5 -25 -4 -8 7 63 44 166 130 190 159 139 171 157 203 170
309 9 73 66 226 138 368 37 72 62 132 56 132 -16 0 -402 -390 -433 -438 -15
-23 -30 -40 -33 -37 -6 6 99 152 196 271 125 155 446 438 689 606 45 32 126
80 180 109 54 28 100 53 102 55 12 12 -47 -1 -149 -31z m-1049 -1048 c-10 -9
-11 -8 -5 6 3 10 9 15 12 12 3 -3 0 -11 -7 -18z"/>
<path d="M1602 3924 c-29 -7 -65 -21 -80 -29 -15 -9 -20 -14 -12 -11 8 2 45
12 83 22 37 10 67 22 67 26 0 4 -1 8 -2 7 -2 0 -27 -7 -56 -15z"/>
<path d="M2305 3729 c4 -8 14 -21 22 -31 8 -9 46 -76 84 -150 75 -143 84 -140
13 4 -44 90 -95 171 -116 184 -7 5 -8 2 -3 -7z"/>
<path d="M1665 3089 c-4 -6 -5 -12 -2 -15 2 -3 7 2 10 11 7 17 1 20 -8 4z"/>
<path d="M946 3045 c-9 -26 -7 -32 5 -12 6 10 9 21 6 23 -2 3 -7 -2 -11 -11z"/>
<path d="M922 2980 c-35 -111 -72 -338 -72 -440 1 -77 17 -22 24 80 8 118 31
265 52 325 8 26 13 52 11 58 -2 7 -9 -4 -15 -23z"/>
<path d="M1560 2995 c0 -8 2 -15 4 -15 2 0 6 7 10 15 3 8 1 15 -4 15 -6 0 -10
-7 -10 -15z"/>
<path d="M1064 2959 c-19 -23 -22 -77 -6 -84 11 -4 13 1 9 24 -4 17 -2 31 5
33 5 2 9 12 7 22 -3 16 -6 17 -15 5z"/>
<path d="M815 2722 c-5 -4 -23 -23 -40 -42 -28 -33 -28 -33 13 5 38 35 47 45
40 45 -2 0 -7 -4 -13 -8z"/>
<path d="M590 2596 c-21 -47 -27 -74 -9 -43 16 28 40 87 34 87 -2 0 -14 -20
-25 -44z"/>
<path d="M1150 2539 c-30 -28 -48 -47 -39 -43 32 17 111 94 97 94 -2 0 -28
-23 -58 -51z"/>
<path d="M810 2549 c0 -5 5 -7 10 -4 6 3 10 8 10 11 0 2 -4 4 -10 4 -5 0 -10
-5 -10 -11z"/>
<path d="M1400 2551 c8 -6 24 -11 35 -11 13 0 16 -3 8 -8 -6 -4 6 -7 29 -7
l41 0 -29 11 c-43 17 -103 28 -84 15z"/>
<path d="M555 2519 c-4 -6 -5 -12 -2 -15 2 -3 7 2 10 11 7 17 1 20 -8 4z"/>
<path d="M658 2518 c-16 -5 -28 -14 -28 -19 0 -5 14 -3 30 6 17 9 30 18 30 20
0 3 -1 5 -2 4 -2 0 -15 -5 -30 -11z"/>
<path d="M1052 2495 c0 -16 2 -22 5 -12 2 9 2 23 0 30 -3 6 -5 -1 -5 -18z"/>
<path d="M535 2466 c-11 -8 -42 -35 -70 -61 -27 -26 -70 -64 -95 -84 -25 -20
-49 -42 -53 -48 -4 -7 -13 -13 -19 -13 -5 0 -31 -17 -57 -38 -42 -34 -127 -96
-158 -116 -50 -30 72 96 174 179 16 14 22 26 18 38 -14 35 -50 31 -158 -21
-102 -48 -104 -50 -110 -88 -4 -22 -7 -70 -7 -108 l0 -70 30 29 c16 16 30 24
30 19 0 -6 -13 -23 -30 -39 -28 -27 -30 -34 -30 -102 l0 -73 63 1 c34 0 91 6
126 12 l64 13 33 78 c18 43 39 86 47 95 13 16 107 205 107 216 0 3 15 29 33
58 18 28 37 61 43 72 6 11 26 30 44 43 26 17 29 22 14 22 -11 0 -28 -6 -39
-14z"/>
<path d="M1298 2443 c7 -3 16 -2 19 1 4 3 -2 6 -13 5 -11 0 -14 -3 -6 -6z"/>
<path d="M440 2431 c-14 -4 -20 -10 -14 -13 13 -9 54 1 54 13 0 10 -4 10 -40
0z"/>
<path d="M1054 2324 c7 -118 30 -257 48 -284 6 -10 8 9 4 58 -3 39 -3 72 -1
72 3 0 14 -23 26 -50 34 -80 32 -53 -5 57 -19 55 -37 120 -40 143 -8 55 -25
120 -33 120 -3 0 -3 -52 1 -116z"/>
<path d="M2290 2425 c0 -7 30 -13 34 -7 3 4 -4 9 -15 9 -10 1 -19 0 -19 -2z"/>
<path d="M2389 2412 c6 -12 16 -24 22 -28 8 -4 8 -1 0 14 -6 12 -16 24 -22 28
-8 4 -8 1 0 -14z"/>
<path d="M1188 2403 c-33 -4 -38 -8 -38 -29 0 -28 -23 -57 -35 -46 -5 4 -5 1
-1 -6 5 -7 13 -11 20 -9 6 3 12 -6 12 -19 3 -42 14 -75 24 -69 6 3 6 15 0 31
-10 26 2 64 20 64 4 0 15 3 24 6 11 4 19 -3 27 -22 l12 -29 11 29 c10 28 12
28 69 22 90 -9 133 -38 155 -104 9 -25 8 -31 -1 -25 -18 11 -47 14 -47 4 0
-12 67 -61 85 -61 3 0 5 14 5 30 0 33 14 39 29 13 18 -34 23 -4 6 41 -18 46
-72 116 -91 116 -6 0 -20 9 -32 20 -12 11 -50 27 -84 35 -61 14 -93 16 -170 8z"/>
<path d="M730 2390 c0 -5 4 -10 9 -10 6 0 13 5 16 10 3 6 -1 10 -9 10 -9 0
-16 -4 -16 -10z"/>
<path d="M815 2391 l-40 -6 45 -7 c49 -7 100 0 100 13 0 10 -43 10 -105 0z"/>
<path d="M2581 2364 c0 -21 3 -32 6 -24 3 8 9 17 14 20 4 3 1 14 -7 24 -13 18
-14 17 -13 -20z"/>
<path d="M310 2381 c-27 -8 -35 -28 -20 -51 8 -13 13 -12 37 6 45 34 35 59
-17 45z"/>
<path d="M715 2359 c-4 -6 -5 -12 -2 -15 2 -3 7 2 10 11 7 17 1 20 -8 4z"/>
<path d="M686 2314 c-10 -25 1 -29 14 -5 6 12 7 21 1 21 -5 0 -12 -7 -15 -16z"/>
<path d="M1308 2272 c-21 -2 -38 -7 -38 -12 0 -8 35 -5 72 6 15 4 17 1 12 -23
-4 -20 0 -36 13 -52 17 -21 21 -22 41 -10 27 17 39 56 25 78 -10 16 -45 20
-125 13z"/>
<path d="M2150 2260 c-13 -9 -13 -10 0 -9 8 0 24 4 35 9 l20 9 -20 0 c-11 0
-27 -4 -35 -9z"/>
<path d="M2263 2250 c-50 -7 -148 -57 -148 -76 0 -5 -4 -14 -8 -21 -6 -9 4 -8
34 2 56 20 68 19 62 -5 -7 -27 9 -25 35 5 18 20 31 25 72 25 49 0 50 1 50 30
0 19 -7 33 -19 40 -11 5 -21 9 -23 9 -2 -1 -26 -5 -55 -9z"/>
<path d="M489 2176 c-30 -34 -64 -76 -77 -92 l-22 -29 21 40 c11 22 27 45 35
52 9 6 11 14 6 17 -14 8 -93 -114 -87 -134 3 -9 -2 -25 -10 -36 -38 -50 5 -56
75 -10 31 20 39 36 70 127 19 57 38 110 43 117 5 6 7 12 4 12 -2 0 -29 -29
-58 -64z"/>
<path d="M593 2180 c-24 -32 -43 -62 -43 -66 0 -15 78 73 85 96 12 37 1 30
-42 -30z"/>
<path d="M1220 2200 c0 -50 18 -94 56 -139 16 -19 29 -42 29 -50 0 -12 9 -15
40 -13 40 4 75 22 42 22 -10 0 -35 9 -56 20 -45 22 -76 77 -86 153 -9 57 -25
62 -25 7z"/>
<path d="M2382 2204 c3 -36 6 -40 46 -52 31 -10 42 -19 42 -34 0 -12 5 -18 13
-15 8 3 14 -4 15 -20 1 -19 -2 -24 -13 -19 -22 8 -19 -18 4 -38 19 -17 20 -17
31 4 7 13 9 35 6 51 -6 32 1 36 29 16 14 -11 17 -22 12 -57 -3 -26 -2 -39 4
-33 5 5 10 46 10 91 2 74 0 85 -21 107 -29 31 -39 25 -16 -9 24 -37 20 -40
-21 -16 -20 11 -52 27 -72 34 -20 7 -44 17 -54 21 -16 7 -18 3 -15 -31z"/>
<path d="M877 2178 c-9 -24 -28 -81 -42 -128 -14 -47 -28 -93 -31 -102 -3 -10
-1 -18 4 -18 6 0 16 24 22 53 7 28 26 92 42 141 30 93 33 128 5 54z"/>
<path d="M960 2205 c0 -8 2 -15 4 -15 2 0 6 7 10 15 3 8 1 15 -4 15 -6 0 -10
-7 -10 -15z"/>
<path d="M946 2144 c-4 -14 -5 -28 -3 -31 3 -2 8 8 11 23 4 14 5 28 3 31 -3 2
-8 -8 -11 -23z"/>
<path d="M1940 2155 c0 -5 5 -17 10 -25 5 -8 10 -10 10 -5 0 6 -5 17 -10 25
-5 8 -10 11 -10 5z"/>
<path d="M2337 2123 c-20 -20 2 -93 28 -93 17 0 20 36 5 74 -9 26 -21 32 -33
19z"/>
<path d="M2400 2090 c0 -25 4 -30 25 -30 27 0 34 15 10 24 -8 3 -15 12 -15 21
0 8 -4 15 -10 15 -5 0 -10 -13 -10 -30z"/>
<path d="M927 2070 c-8 -39 -3 -50 11 -23 5 10 6 27 2 38 -5 16 -8 13 -13 -15z"/>
<path d="M2185 2080 c-3 -5 3 -10 14 -10 11 0 23 5 26 10 3 6 -3 10 -14 10
-11 0 -23 -4 -26 -10z"/>
<path d="M1760 2076 c0 -2 8 -10 18 -17 15 -13 16 -12 3 4 -13 16 -21 21 -21
13z"/>
<path d="M1476 2053 c-6 -14 -5 -15 5 -6 7 7 10 15 7 18 -3 3 -9 -2 -12 -12z"/>
<path d="M2801 1972 c-7 -29 -11 -56 -8 -59 8 -7 29 74 25 95 -2 9 -9 -7 -17
-36z"/>
<path d="M1870 1967 c0 -3 12 -12 26 -22 15 -9 23 -12 20 -6 -7 11 -46 35 -46
28z"/>
<path d="M297 1943 c-4 -3 -7 -11 -7 -17 0 -6 5 -5 12 2 6 6 9 14 7 17 -3 3
-9 2 -12 -2z"/>
<path d="M2405 1884 c-27 -13 -60 -24 -72 -24 -32 0 -37 -17 -8 -23 14 -2 28
0 31 4 3 5 16 9 30 9 14 0 27 7 30 15 4 8 12 15 19 15 7 0 18 7 25 15 17 20 4
18 -55 -11z"/>
<path d="M2253 1863 c9 -9 20 -13 24 -9 4 4 1 11 -7 16 -25 16 -35 11 -17 -7z"/>
<path d="M756 1658 c-7 -29 -8 -93 0 -86 7 8 17 108 11 108 -3 0 -7 -10 -11
-22z"/>
<path d="M3692 1617 c-3 -34 6 -33 13 1 2 12 0 24 -4 26 -4 3 -8 -9 -9 -27z"/>
<path d="M2951 1543 c12 -66 49 -186 55 -180 3 3 -1 25 -9 49 -8 23 -20 70
-27 103 -16 73 -31 97 -19 28z"/>
<path d="M2880 1501 c0 -6 4 -11 9 -11 5 0 12 -8 15 -17 3 -11 4 -8 3 6 -2 24
-27 44 -27 22z"/>
<path d="M743 1484 c-3 -8 -1 -20 6 -27 8 -8 11 -4 11 16 0 30 -7 35 -17 11z"/>
<path d="M1599 1480 c-11 -7 -10 -10 3 -15 9 -4 27 -5 39 -3 23 3 23 3 -2 15
-15 6 -32 8 -40 3z"/>
<path d="M2918 1420 c2 -17 9 -33 15 -37 6 -4 8 2 4 18 -4 13 -7 30 -7 37 0 6
-4 12 -8 12 -5 0 -7 -14 -4 -30z"/>
<path d="M1755 1420 c4 -6 24 -9 45 -8 50 4 41 18 -11 18 -25 0 -38 -4 -34
-10z"/>
<path d="M1060 1353 c0 -10 5 -25 10 -33 8 -12 10 -9 10 12 0 15 -4 30 -10 33
-5 3 -10 -2 -10 -12z"/>
<path d="M3630 1365 c0 -5 9 -23 19 -39 11 -17 18 -33 15 -37 -2 -4 3 -10 12
-13 9 -3 14 -13 11 -20 -3 -8 5 -27 19 -43 14 -15 34 -45 45 -66 11 -21 24
-35 29 -32 16 10 12 21 -35 94 -25 38 -45 72 -45 75 0 3 -7 14 -14 23 -8 10
-24 29 -35 43 -11 14 -20 21 -21 15z"/>
<path d="M3034 1294 c2 -22 16 -38 56 -66 29 -21 63 -38 74 -37 14 0 16 3 7 6
-33 13 -88 57 -113 89 l-27 36 3 -28z"/>
<path d="M2980 830 l-35 -7 40 -2 c22 0 47 4 55 9 12 8 11 9 -5 9 -11 -1 -36
-5 -55 -9z"/>
<path d="M1281 711 c14 -19 32 -37 39 -39 23 -8 5 21 -31 47 l-34 26 26 -34z"/>
</g>
</svg>
